<svg xmlns="http://www.w3.org/2000/svg" viewBox="0 0 2059.89 313.77"><defs><style>.cls-1{fill:#e3610e;}.cls-2{fill:#1e1e1c;}</style></defs><g id="Camada_2" data-name="Camada 2"><g id="Camada_1-2" data-name="Camada 1"><path class="cls-1" d="M189.26.05C-85.53,12.17,19.85,313.77,19.85,313.77c24-26,101.16-88,209.3-88.46h.37c52.11,0,82.84,44.33,71,88.41,0,0,81.23-95.13,36.06-203.52-15.06-36.11-55.5-63-102.87-63a132.48,132.48,0,0,0-49.82,9.94c-39.61,16-44.93,51.89-36.82,68.48,5.92,12.13,17.71,18.15,30.39,18.15a40.6,40.6,0,0,0,6.43-.51c39.84-6.25,56.06-24.67,65.27-24.67a5.56,5.56,0,0,1,3.55,1.2c5.87,4.54.24,23.23-50.74,43.76-12.33,5-34.92,10.76-57.23,10.76-26,0-51.61-7.87-60.21-34.09C68.57,91.49,125.9,33.15,212,26.39c4.36-.39,10.28-.57,14.42-.57A142,142,0,0,1,317.2,58.58C299.34,28.67,261.82,1.15,201.21.11c0,0-5-.2-12-.06"></path><path class="cls-2" d="M950.12,304.92H897.71l-85-96.58H753.65v96.58H709V25.56H839c64.65,0,98.58,44.3,98.58,91.4,0,39.91-20.76,79-75.84,87ZM753.65,66.27V167.63h85c37.12,0,53.48-23.55,53.48-49.89,0-25.13-16.36-51.47-53.08-51.47Z"></path><path class="cls-2" d="M1573.2,25.55c95.38,0,138.89,68.25,140.09,137.29,1.6,70.64-42.3,142.08-140.09,142.08H1467.45V25.55Zm-61.45,236.26h61.45c68.25,0,97-50.28,95.79-99.36-1.2-47.1-29.93-94.19-95.79-94.19h-61.45Z"></path><rect class="cls-2" x="1747.52" y="25.55" width="44.29" height="279.36"></rect><path class="cls-2" d="M2013.56,87.42c-13.17-19.16-39.9-30.74-69-31.13-37.52,0-64.66,15.56-64.66,42.3,0,27.14,31.13,34.72,67.85,39.91,57.46,8,112.14,23.94,112.14,86.6-.4,62.66-57.46,86.21-115.73,86.21-53.48,0-94.58-16.37-120.13-63.46l33.53-22.36c20,33.93,54.68,45.91,87,45.91,33.52,0,70.64-11.19,70.64-46.3,0-30.32-32.33-40.71-71.45-45.89-55.47-7.59-108.15-21.56-108.15-81.42-.4-57.86,57.47-80.21,107.76-80.21,40.31,0,80.62,9.57,104.16,47.09Z"></path><polygon class="cls-2" points="693.6 304.93 568.28 25.55 519.6 25.55 394.27 304.93 441.79 304.93 543.93 72.65 602.36 205.54 510 205.54 492.06 246.26 620.25 246.26 646.04 304.93 693.6 304.93"></polygon><path class="cls-2" d="M1326.68,25.55H1278l-81.29,181.2a140.61,140.61,0,0,1-21.68,31.8c-19.55,19.37-48.12,30.05-73.93,30.05-72.24,0-102.56-50.69-103-101.77-.4-51.47,31.93-103.76,103-103.76,25.94,0,52.28,9.17,72.23,28.74l29.94-28.74A142.81,142.81,0,0,0,1101.1,20.76c-99.77,0-147.66,73-147.26,146.47s45.9,143.28,147.26,143.28c39.1,0,76.23-13.18,105-41.51a159.06,159.06,0,0,0,29.27-44l3.5-8,8.16-18.58L1302.37,72.6l58.42,132.89h-92.37l-17.92,40.72h128.19l25.79,58.67H1452Z"></path></g></g></svg>